<?xml version="1.0" standalone="no"?>
<!DOCTYPE svg PUBLIC "-//W3C//DTD SVG 20010904//EN"
 "http://www.w3.org/TR/2001/REC-SVG-20010904/DTD/svg10.dtd">
<svg version="1.0" xmlns="http://www.w3.org/2000/svg"
 width="700.000000pt" height="700.000000pt" viewBox="0 0 700.000000 700.000000"
 preserveAspectRatio="xMidYMid meet">
<metadata>
Created by potrace 1.14, written by Peter Selinger 2001-2017
</metadata>
<g transform="translate(0.000000,700.000000) scale(0.100000,-0.100000)"
fill="#000000" stroke="none">
<path d="M1255 6993 c-138 -12 -350 -75 -485 -143 -386 -196 -644 -533 -742
-971 l-23 -104 0 -2275 0 -2275 23 -104 c128 -568 527 -968 1095 -1093 l102
-23 2275 0 2275 0 102 23 c566 125 970 529 1095 1095 l23 102 0 2275 0 2275
-23 102 c-125 566 -522 964 -1090 1095 l-97 22 -2245 2 c-1235 0 -2263 -1
-2285 -3z m1630 -1378 c106 -23 202 -73 281 -148 108 -102 169 -221 183 -357
l6 -65 845 -5 c937 -6 861 0 1005 -72 83 -42 200 -162 242 -249 37 -77 63
-170 63 -227 l0 -40 223 -4 c199 -3 228 -6 282 -26 129 -48 228 -147 262 -262
23 -77 20 -198 -7 -285 -43 -137 -632 -1711 -661 -1766 -39 -73 -112 -161
-185 -221 -75 -62 -216 -132 -318 -158 -78 -20 -115 -20 -1740 -20 -1089 0
-1676 4 -1706 11 -25 5 -83 28 -129 51 -153 75 -273 223 -315 384 -14 55 -16
220 -16 1510 0 1256 2 1458 15 1513 50 209 234 390 445 435 98 21 1126 22
1225 1z"/>
<path d="M2604 4041 c-102 -37 -225 -136 -264 -212 -29 -57 -630 -1677 -630
-1699 0 -12 9 -22 23 -25 12 -3 749 -4 1638 -3 l1615 3 77 38 c80 39 172 116
206 170 20 33 588 1541 623 1656 19 62 19 65 2 78 -15 11 -315 13 -1628 13
-1537 -1 -1613 -2 -1662 -19z"/>
</g>
</svg>
